<svg width="39" height="39" viewBox="0 0 39 39" fill="none" xmlns="http://www.w3.org/2000/svg">
<path d="M35.9531 12.8906H3.80859C3.48536 12.8906 3.17537 13.019 2.94681 13.2476C2.71825 13.4761 2.58984 13.7861 2.58984 14.1094V24.8907C2.58984 25.214 2.71825 25.524 2.94681 25.7525C3.17537 25.9811 3.48536 26.1095 3.80859 26.1095H7.90207V22.1089H6.01758C5.93677 22.1089 5.85927 22.0768 5.80213 22.0197C5.74499 21.9626 5.71289 21.8851 5.71289 21.8043C5.71289 21.7234 5.74499 21.646 5.80213 21.5888C5.85927 21.5317 5.93677 21.4996 6.01758 21.4996H32.9824C33.0632 21.4996 33.1407 21.5317 33.1979 21.5888C33.255 21.646 33.2871 21.7234 33.2871 21.8043C33.2871 21.8851 33.255 21.9626 33.1979 22.0197C33.1407 22.0768 33.0632 22.1089 32.9824 22.1089H31.0979V26.1095H35.9531C36.2764 26.1095 36.5864 25.9811 36.8149 25.7525C37.0435 25.524 37.1719 25.214 37.1719 24.8907V14.1094C37.1719 13.7861 37.0435 13.4761 36.8149 13.2476C36.5864 13.019 36.2764 12.8906 35.9531 12.8906ZM13.0269 15.5658C13.0269 15.6466 12.9948 15.7241 12.9377 15.7812C12.8805 15.8384 12.803 15.8705 12.7222 15.8705H10.4173C10.3365 15.8705 10.259 15.8384 10.2018 15.7812C10.1447 15.7241 10.1126 15.6466 10.1126 15.5658C10.1126 15.485 10.1447 15.4075 10.2018 15.3503C10.259 15.2932 10.3365 15.2611 10.4173 15.2611H12.7222C12.803 15.2611 12.8805 15.2932 12.9377 15.3503C12.9948 15.4075 13.0269 15.485 13.0269 15.5658ZM8.41699 15.5658C8.41659 15.9519 8.26302 16.3221 7.98998 16.5952C7.71693 16.8682 7.34672 17.0218 6.96059 17.0222H4.65562C4.26916 17.0222 3.89852 16.8687 3.62525 16.5954C3.35198 16.3221 3.19846 15.9515 3.19846 15.565C3.19846 15.1786 3.35198 14.8079 3.62525 14.5346C3.89852 14.2614 4.26916 14.1079 4.65562 14.1079H6.96059C7.34713 14.1083 7.71772 14.262 7.99105 14.5353C8.26438 14.8086 8.41811 15.1792 8.41852 15.5658H8.41699Z" fill="#40BDFF"/>
<path d="M6.96135 14.7188H4.65639C4.43154 14.7188 4.2159 14.8081 4.05691 14.9671C3.89791 15.1261 3.80859 15.3417 3.80859 15.5665C3.80859 15.7914 3.89791 16.007 4.05691 16.166C4.2159 16.325 4.43154 16.4143 4.65639 16.4143H6.96135C7.1862 16.4143 7.40184 16.325 7.56083 16.166C7.71982 16.007 7.80914 15.7914 7.80914 15.5665C7.80914 15.3417 7.71982 15.1261 7.56083 14.9671C7.40184 14.8081 7.1862 14.7188 6.96135 14.7188Z" fill="#EB5639"/>
<path d="M6.96094 14.7188H6.50391C6.72875 14.7188 6.94439 14.8081 7.10339 14.9671C7.26238 15.1261 7.3517 15.3417 7.3517 15.5665C7.3517 15.7914 7.26238 16.007 7.10339 16.166C6.94439 16.325 6.72875 16.4143 6.50391 16.4143H6.96094C7.18579 16.4143 7.40143 16.325 7.56042 16.166C7.71941 16.007 7.80873 15.7914 7.80873 15.5665C7.80873 15.3417 7.71941 15.1261 7.56042 14.9671C7.40143 14.8081 7.18579 14.7188 6.96094 14.7188Z" fill="#D84936"/>
<path d="M10.4922 35.3282H29.2701C29.5933 35.3282 29.9033 35.1998 30.1319 34.9713C30.3604 34.7427 30.4888 34.4327 30.4888 34.1095V22.1094H9.27344V34.1095C9.27344 34.4327 9.40184 34.7427 9.6304 34.9713C9.85896 35.1998 10.169 35.3282 10.4922 35.3282ZM10.742 33.0233H28.2616C28.3424 33.0233 28.4199 33.0554 28.477 33.1125C28.5341 33.1697 28.5662 33.2472 28.5662 33.328C28.5662 33.4088 28.5341 33.4863 28.477 33.5434C28.4199 33.6006 28.3424 33.6327 28.2616 33.6327H10.742C10.6612 33.6327 10.5837 33.6006 10.5266 33.5434C10.4694 33.4863 10.4373 33.4088 10.4373 33.328C10.4373 33.2472 10.4694 33.1697 10.5266 33.1125C10.5837 33.0554 10.6612 33.0233 10.742 33.0233ZM28.2616 31.3277H10.742C10.6612 31.3277 10.5837 31.2956 10.5266 31.2385C10.4694 31.1813 10.4373 31.1038 10.4373 31.023C10.4373 30.9422 10.4694 30.8647 10.5266 30.8076C10.5837 30.7504 10.6612 30.7183 10.742 30.7183H28.2616C28.3424 30.7183 28.4199 30.7504 28.477 30.8076C28.5341 30.8647 28.5662 30.9422 28.5662 31.023C28.5662 31.1038 28.5341 31.1813 28.477 31.2385C28.4199 31.2956 28.3424 31.3277 28.2616 31.3277ZM28.2616 29.0227H10.742C10.6612 29.0227 10.5837 28.9906 10.5266 28.9335C10.4694 28.8764 10.4373 28.7989 10.4373 28.718C10.4373 28.6372 10.4694 28.5597 10.5266 28.5026C10.5837 28.4455 10.6612 28.4134 10.742 28.4134H28.2616C28.3424 28.4134 28.4199 28.4455 28.477 28.5026C28.5341 28.5597 28.5662 28.6372 28.5662 28.718C28.5662 28.7989 28.5341 28.8764 28.477 28.9335C28.4199 28.9906 28.3424 29.0227 28.2616 29.0227ZM28.2616 26.7178H10.742C10.6612 26.7178 10.5837 26.6857 10.5266 26.6285C10.4694 26.5714 10.4373 26.4939 10.4373 26.4131C10.4373 26.3323 10.4694 26.2548 10.5266 26.1976C10.5837 26.1405 10.6612 26.1084 10.742 26.1084H28.2616C28.3424 26.1084 28.4199 26.1405 28.477 26.1976C28.5341 26.2548 28.5662 26.3323 28.5662 26.4131C28.5662 26.4939 28.5341 26.5714 28.477 26.6285C28.4199 26.6857 28.3424 26.7178 28.2616 26.7178ZM28.2616 24.4128H10.742C10.6612 24.4128 10.5837 24.3807 10.5266 24.3236C10.4694 24.2664 10.4373 24.1889 10.4373 24.1081C10.4373 24.0273 10.4694 23.9498 10.5266 23.8927C10.5837 23.8355 10.6612 23.8034 10.742 23.8034H28.2616C28.3424 23.8034 28.4199 23.8355 28.477 23.8927C28.5341 23.9498 28.5662 24.0273 28.5662 24.1081C28.5662 24.1889 28.5341 24.2664 28.477 24.3236C28.4199 24.3807 28.3424 24.4128 28.2616 24.4128Z" fill="#EFFAFE"/>
<path d="M30.4888 4.89062C30.4888 4.56739 30.3604 4.2574 30.1319 4.02884C29.9033 3.80028 29.5933 3.67188 29.2701 3.67188H10.4922C10.169 3.67188 9.85896 3.80028 9.6304 4.02884C9.40184 4.2574 9.27344 4.56739 9.27344 4.89062V12.2823H30.4888V4.89062Z" fill="#EFFAFE"/>
<path d="M35.9531 12.8906H35.1914C35.5146 12.8906 35.8246 13.019 36.0532 13.2476C36.2818 13.4761 36.4102 13.7861 36.4102 14.1094V24.8907C36.4102 25.214 36.2818 25.524 36.0532 25.7525C35.8246 25.9811 35.5146 26.1095 35.1914 26.1095H35.9531C36.2764 26.1095 36.5864 25.9811 36.8149 25.7525C37.0435 25.524 37.1719 25.214 37.1719 24.8907V14.1094C37.1719 13.7861 37.0435 13.4761 36.8149 13.2476C36.5864 13.019 36.2764 12.8906 35.9531 12.8906Z" fill="#2197F7"/>
<path d="M29.7266 22.1094V34.1095C29.7266 34.4327 29.5982 34.7427 29.3696 34.9713C29.141 35.1998 28.831 35.3282 28.5078 35.3282H29.2695C29.5928 35.3282 29.9028 35.1998 30.1313 34.9713C30.3599 34.7427 30.4883 34.4327 30.4883 34.1095V22.1094H29.7266Z" fill="#E4EBED"/>
<path d="M29.2695 3.67188H28.5078C28.831 3.67188 29.141 3.80028 29.3696 4.02884C29.5982 4.2574 29.7266 4.56739 29.7266 4.89062V12.2823H30.4883V4.89062C30.4883 4.56739 30.3599 4.2574 30.1313 4.02884C29.9028 3.80028 29.5928 3.67188 29.2695 3.67188Z" fill="#E4EBED"/>
<path d="M35.9512 12.2051H31.1721V4.89258C31.1717 4.38765 30.971 3.90352 30.6139 3.54648C30.2569 3.18944 29.7728 2.98868 29.2679 2.98828H9.72824C9.22331 2.98868 8.73918 3.18944 8.38215 3.54648C8.02511 3.90352 7.82435 4.38765 7.82395 4.89258V12.2051H3.04492C2.53999 12.2055 2.05586 12.4062 1.69883 12.7633C1.34179 13.1203 1.14103 13.6044 1.14062 14.1094V24.8907C1.14143 25.3954 1.34237 25.8791 1.69936 26.2359C2.05636 26.5926 2.54026 26.7931 3.04492 26.7935H7.82395V34.106C7.82435 34.6109 8.02511 35.0951 8.38215 35.4521C8.73918 35.8091 9.22331 36.0099 9.72824 36.0103H29.2679C29.7728 36.0099 30.2569 35.8091 30.6139 35.4521C30.971 35.0951 31.1717 34.6109 31.1721 34.106V26.7935H35.9512C36.4561 26.7931 36.9402 26.5924 37.2973 26.2353C37.6543 25.8783 37.8551 25.3941 37.8555 24.8892V14.1094C37.8551 13.6044 37.6543 13.1203 37.2973 12.7633C36.9402 12.4062 36.4561 12.2055 35.9512 12.2051ZM8.58566 4.88953C8.58607 4.58662 8.70658 4.29624 8.92076 4.08205C9.13495 3.86786 9.42534 3.74736 9.72824 3.74695H29.2679C29.5708 3.74736 29.8611 3.86786 30.0753 4.08205C30.2895 4.29624 30.41 4.58662 30.4104 4.88953V12.202H8.58566V4.88953ZM30.4104 26.4127V34.1091C30.41 34.412 30.2895 34.7024 30.0753 34.9165C29.8611 35.1307 29.5708 35.2512 29.2679 35.2516H9.72824C9.42534 35.2512 9.13495 35.1307 8.92076 34.9165C8.70658 34.7024 8.58607 34.412 8.58566 34.1091V22.1851H30.4104V26.4127ZM37.0938 24.8892C37.0933 25.1921 36.9728 25.4825 36.7587 25.6967C36.5445 25.9109 36.2541 26.0314 35.9512 26.0318H31.1721V22.1851H32.9805C33.0815 22.1851 33.1784 22.145 33.2498 22.0736C33.3212 22.0021 33.3613 21.9053 33.3613 21.8043C33.3613 21.7032 33.3212 21.6064 33.2498 21.5349C33.1784 21.4635 33.0815 21.4234 32.9805 21.4234H6.01562C5.91461 21.4234 5.81774 21.4635 5.74632 21.5349C5.67489 21.6064 5.63477 21.7032 5.63477 21.8043C5.63477 21.9053 5.67489 22.0021 5.74632 22.0736C5.81774 22.145 5.91461 22.1851 6.01562 22.1851H7.82395V26.0333H3.04492C2.74202 26.0329 2.45163 25.9124 2.23744 25.6982C2.02325 25.484 1.90275 25.1936 1.90234 24.8907V14.1094C1.90275 13.8065 2.02325 13.5161 2.23744 13.3019C2.45163 13.0877 2.74202 12.9672 3.04492 12.9668H35.9512C36.2541 12.9672 36.5445 13.0877 36.7587 13.3019C36.9728 13.5161 37.0933 13.8065 37.0938 14.1094V24.8892Z" fill="#263238"/>
<path d="M6.9633 14.0332H4.65834C4.25167 14.0332 3.86166 14.1948 3.5741 14.4823C3.28655 14.7699 3.125 15.1599 3.125 15.5665C3.125 15.9732 3.28655 16.3632 3.5741 16.6508C3.86166 16.9383 4.25167 17.0999 4.65834 17.0999H6.9633C7.36997 17.0999 7.75998 16.9383 8.04753 16.6508C8.33509 16.3632 8.49664 15.9732 8.49664 15.5665C8.49664 15.1599 8.33509 14.7699 8.04753 14.4823C7.75998 14.1948 7.36997 14.0332 6.9633 14.0332ZM6.9633 16.3382H4.65834C4.45369 16.3382 4.25743 16.2569 4.11272 16.1122C3.96801 15.9675 3.88672 15.7712 3.88672 15.5665C3.88672 15.3619 3.96801 15.1656 4.11272 15.0209C4.25743 14.8762 4.45369 14.7949 4.65834 14.7949H6.9633C7.16795 14.7949 7.36421 14.8762 7.50892 15.0209C7.65363 15.1656 7.73492 15.3619 7.73492 15.5665C7.73492 15.7712 7.65363 15.9675 7.50892 16.1122C7.36421 16.2569 7.16795 16.3382 6.9633 16.3382Z" fill="#263238"/>
<path d="M12.721 15.1855H10.416C10.315 15.1855 10.2181 15.2257 10.1467 15.2971C10.0753 15.3685 10.0352 15.4654 10.0352 15.5664C10.0352 15.6674 10.0753 15.7643 10.1467 15.8357C10.2181 15.9071 10.315 15.9473 10.416 15.9473H12.721C12.822 15.9473 12.9189 15.9071 12.9903 15.8357C13.0617 15.7643 13.1018 15.6674 13.1018 15.5664C13.1018 15.4654 13.0617 15.3685 12.9903 15.2971C12.9189 15.2257 12.822 15.1855 12.721 15.1855Z" fill="#263238"/>
<path d="M10.7441 24.4902H28.2637C28.3647 24.4902 28.4616 24.4501 28.533 24.3787C28.6044 24.3073 28.6445 24.2104 28.6445 24.1094C28.6445 24.0084 28.6044 23.9115 28.533 23.8401C28.4616 23.7686 28.3647 23.7285 28.2637 23.7285H10.7441C10.6431 23.7285 10.5463 23.7686 10.4748 23.8401C10.4034 23.9115 10.3633 24.0084 10.3633 24.1094C10.3633 24.2104 10.4034 24.3073 10.4748 24.3787C10.5463 24.4501 10.6431 24.4902 10.7441 24.4902Z" fill="#263238"/>
<path d="M10.7441 26.7949H28.2637C28.3647 26.7949 28.4616 26.7548 28.533 26.6834C28.6044 26.6119 28.6445 26.5151 28.6445 26.4141C28.6445 26.3131 28.6044 26.2162 28.533 26.1448C28.4616 26.0733 28.3647 26.0332 28.2637 26.0332H10.7441C10.6431 26.0332 10.5463 26.0733 10.4748 26.1448C10.4034 26.2162 10.3633 26.3131 10.3633 26.4141C10.3633 26.5151 10.4034 26.6119 10.4748 26.6834C10.5463 26.7548 10.6431 26.7949 10.7441 26.7949Z" fill="#263238"/>
<path d="M10.7441 29.0977H28.2637C28.3647 29.0977 28.4616 29.0575 28.533 28.9861C28.6044 28.9147 28.6445 28.8178 28.6445 28.7168C28.6445 28.6158 28.6044 28.5189 28.533 28.4475C28.4616 28.3761 28.3647 28.3359 28.2637 28.3359H10.7441C10.6431 28.3359 10.5463 28.3761 10.4748 28.4475C10.4034 28.5189 10.3633 28.6158 10.3633 28.7168C10.3633 28.8178 10.4034 28.9147 10.4748 28.9861C10.5463 29.0575 10.6431 29.0977 10.7441 29.0977Z" fill="#263238"/>
<path d="M10.7441 31.4043H28.2637C28.3647 31.4043 28.4616 31.3642 28.533 31.2927C28.6044 31.2213 28.6445 31.1244 28.6445 31.0234C28.6445 30.9224 28.6044 30.8256 28.533 30.7541C28.4616 30.6827 28.3647 30.6426 28.2637 30.6426H10.7441C10.6431 30.6426 10.5463 30.6827 10.4748 30.7541C10.4034 30.8256 10.3633 30.9224 10.3633 31.0234C10.3633 31.1244 10.4034 31.2213 10.4748 31.2927C10.5463 31.3642 10.6431 31.4043 10.7441 31.4043Z" fill="#263238"/>
<path d="M10.7441 33.709H28.2637C28.3647 33.709 28.4616 33.6689 28.533 33.5974C28.6044 33.526 28.6445 33.4291 28.6445 33.3281C28.6445 33.2271 28.6044 33.1302 28.533 33.0588C28.4616 32.9874 28.3647 32.9473 28.2637 32.9473H10.7441C10.6431 32.9473 10.5463 32.9874 10.4748 33.0588C10.4034 33.1302 10.3633 33.2271 10.3633 33.3281C10.3633 33.4291 10.4034 33.526 10.4748 33.5974C10.5463 33.6689 10.6431 33.709 10.7441 33.709Z" fill="#263238"/>
<path d="M3.50391 29.8594H2.89453V29.25C2.89453 29.2096 2.87848 29.1708 2.84991 29.1423C2.82134 29.1137 2.78259 29.0977 2.74219 29.0977C2.70178 29.0977 2.66303 29.1137 2.63446 29.1423C2.60589 29.1708 2.58984 29.2096 2.58984 29.25V29.8594H1.98047C1.94006 29.8594 1.90132 29.8754 1.87275 29.904C1.84418 29.9326 1.82812 29.9713 1.82812 30.0117C1.82812 30.0521 1.84418 30.0909 1.87275 30.1194C1.90132 30.148 1.94006 30.1641 1.98047 30.1641H2.58984V30.7734C2.58984 30.8138 2.60589 30.8526 2.63446 30.8812C2.66303 30.9097 2.70178 30.9258 2.74219 30.9258C2.78259 30.9258 2.82134 30.9097 2.84991 30.8812C2.87848 30.8526 2.89453 30.8138 2.89453 30.7734V30.1641H3.50391C3.54431 30.1641 3.58306 30.148 3.61163 30.1194C3.6402 30.0909 3.65625 30.0521 3.65625 30.0117C3.65625 29.9713 3.6402 29.9326 3.61163 29.904C3.58306 29.8754 3.54431 29.8594 3.50391 29.8594Z" fill="#FFDD00"/>
<path d="M35.4961 28.6797H34.8867V28.0703C34.8867 28.0299 34.8707 27.9912 34.8421 27.9626C34.8135 27.934 34.7748 27.918 34.7344 27.918C34.694 27.918 34.6552 27.934 34.6267 27.9626C34.5981 27.9912 34.582 28.0299 34.582 28.0703V28.6797H33.9727C33.9323 28.6797 33.8935 28.6957 33.8649 28.7243C33.8364 28.7529 33.8203 28.7916 33.8203 28.832C33.8203 28.8724 33.8364 28.9112 33.8649 28.9398C33.8935 28.9683 33.9323 28.9844 33.9727 28.9844H34.582V29.5938C34.582 29.6342 34.5981 29.6729 34.6267 29.7015C34.6552 29.73 34.694 29.7461 34.7344 29.7461C34.7748 29.7461 34.8135 29.73 34.8421 29.7015C34.8707 29.6729 34.8867 29.6342 34.8867 29.5938V28.9844H35.4961C35.5365 28.9844 35.5752 28.9683 35.6038 28.9398C35.6324 28.9112 35.6484 28.8724 35.6484 28.832C35.6484 28.7916 35.6324 28.7529 35.6038 28.7243C35.5752 28.6957 35.5365 28.6797 35.4961 28.6797Z" fill="#FFDD00"/>
<path d="M4.01172 4.26562H3.40234V3.65625C3.40234 3.61585 3.38629 3.5771 3.35772 3.54853C3.32915 3.51996 3.2904 3.50391 3.25 3.50391C3.2096 3.50391 3.17085 3.51996 3.14228 3.54853C3.11371 3.5771 3.09766 3.61585 3.09766 3.65625V4.26562H2.48828C2.44788 4.26562 2.40913 4.28168 2.38056 4.31025C2.35199 4.33882 2.33594 4.37756 2.33594 4.41797C2.33594 4.45837 2.35199 4.49712 2.38056 4.52569C2.40913 4.55426 2.44788 4.57031 2.48828 4.57031H3.09766V5.17969C3.09766 5.22009 3.11371 5.25884 3.14228 5.28741C3.17085 5.31598 3.2096 5.33203 3.25 5.33203C3.2904 5.33203 3.32915 5.31598 3.35772 5.28741C3.38629 5.25884 3.40234 5.22009 3.40234 5.17969V4.57031H4.01172C4.05212 4.57031 4.09087 4.55426 4.11944 4.52569C4.14801 4.49712 4.16406 4.45837 4.16406 4.41797C4.16406 4.37756 4.14801 4.33882 4.11944 4.31025C4.09087 4.28168 4.05212 4.26562 4.01172 4.26562Z" fill="#40BDFF"/>
<path d="M33.5156 4.81445C33.3348 4.81445 33.1581 4.76084 33.0078 4.66041C32.8575 4.55997 32.7403 4.41721 32.6711 4.25019C32.602 4.08316 32.5839 3.89938 32.6191 3.72207C32.6544 3.54476 32.7415 3.38189 32.8693 3.25405C32.9971 3.12622 33.16 3.03916 33.3373 3.00389C33.5146 2.96862 33.6984 2.98672 33.8654 3.05591C34.0324 3.12509 34.1752 3.24225 34.2756 3.39257C34.3761 3.54288 34.4297 3.71961 34.4297 3.90039C34.4297 4.14282 34.3334 4.37531 34.162 4.54673C33.9905 4.71815 33.758 4.81445 33.5156 4.81445ZM33.5156 3.29102C33.3951 3.29102 33.2773 3.32676 33.1771 3.39371C33.0769 3.46067 32.9988 3.55584 32.9526 3.66719C32.9065 3.77854 32.8944 3.90107 32.918 4.01927C32.9415 4.13748 32.9995 4.24606 33.0847 4.33128C33.17 4.41651 33.2785 4.47454 33.3967 4.49806C33.5149 4.52157 33.6375 4.5095 33.7488 4.46338C33.8602 4.41726 33.9553 4.33915 34.0223 4.23894C34.0893 4.13873 34.125 4.02091 34.125 3.90039C34.125 3.73877 34.0608 3.58378 33.9465 3.4695C33.8322 3.35522 33.6772 3.29102 33.5156 3.29102Z" fill="#40BDFF"/>
<path d="M5.80859 36.7148C5.62781 36.7148 5.45108 36.6612 5.30077 36.5608C5.15045 36.4604 5.03329 36.3176 4.96411 36.1506C4.89493 35.9836 4.87683 35.7998 4.9121 35.6225C4.94736 35.4451 5.03442 35.2823 5.16225 35.1544C5.29009 35.0266 5.45296 34.9396 5.63027 34.9043C5.80758 34.869 5.99137 34.8871 6.15839 34.9563C6.32541 35.0255 6.46817 35.1426 6.56861 35.293C6.66905 35.4433 6.72266 35.62 6.72266 35.8008C6.72266 36.0432 6.62635 36.2757 6.45493 36.4471C6.28351 36.6185 6.05102 36.7148 5.80859 36.7148ZM5.80859 35.1914C5.68807 35.1914 5.57025 35.2271 5.47004 35.2941C5.36983 35.3611 5.29173 35.4562 5.24561 35.5676C5.19948 35.6789 5.18742 35.8015 5.21093 35.9197C5.23444 36.0379 5.29248 36.1465 5.3777 36.2317C5.46292 36.3169 5.5715 36.3749 5.68971 36.3984C5.80792 36.422 5.93044 36.4099 6.04179 36.3638C6.15314 36.3176 6.24831 36.2395 6.31527 36.1393C6.38223 36.0391 6.41797 35.9213 6.41797 35.8008C6.41797 35.6392 6.35377 35.4842 6.23949 35.3699C6.12521 35.2556 5.97021 35.1914 5.80859 35.1914Z" fill="#40BDFF"/>
<path d="M34.6914 11.082C34.5106 11.082 34.3339 11.0284 34.1836 10.928C34.0333 10.8275 33.9161 10.6848 33.8469 10.5178C33.7777 10.3507 33.7596 10.167 33.7949 9.98964C33.8302 9.81233 33.9172 9.64946 34.0451 9.52163C34.1729 9.3938 34.3358 9.30674 34.5131 9.27147C34.6904 9.2362 34.8742 9.2543 35.0412 9.32349C35.2082 9.39267 35.351 9.50983 35.4514 9.66014C35.5519 9.81046 35.6055 9.98718 35.6055 10.168C35.6055 10.4104 35.5092 10.6429 35.3377 10.8143C35.1663 10.9857 34.9338 11.082 34.6914 11.082ZM34.6914 9.55859C34.5709 9.55859 34.4531 9.59433 34.3529 9.66129C34.2526 9.72825 34.1745 9.82342 34.1284 9.93477C34.0823 10.0461 34.0702 10.1686 34.0937 10.2869C34.1173 10.4051 34.1753 10.5136 34.2605 10.5989C34.3457 10.6841 34.4543 10.7421 34.5725 10.7656C34.6907 10.7891 34.8133 10.7771 34.9246 10.731C35.036 10.6848 35.1311 10.6067 35.1981 10.5065C35.265 10.4063 35.3008 10.2885 35.3008 10.168C35.3008 10.0064 35.2366 9.85136 35.1223 9.73708C35.008 9.6228 34.853 9.55859 34.6914 9.55859Z" fill="#FFDD00"/>
<path d="M34.7852 34.8105H34.3906L34.6694 34.5318C34.6943 34.5026 34.7074 34.4651 34.7059 34.4268C34.7044 34.3884 34.6885 34.3521 34.6614 34.3249C34.6343 34.2978 34.5979 34.2819 34.5595 34.2804C34.5212 34.279 34.4837 34.292 34.4546 34.317L34.1758 34.5957V34.2012C34.1758 34.1608 34.1597 34.122 34.1312 34.0934C34.1026 34.0649 34.0638 34.0488 34.0234 34.0488C33.983 34.0488 33.9443 34.0649 33.9157 34.0934C33.8871 34.122 33.8711 34.1608 33.8711 34.2012V34.5957L33.5923 34.317C33.5632 34.292 33.5257 34.279 33.4873 34.2804C33.449 34.2819 33.4126 34.2978 33.3855 34.3249C33.3584 34.3521 33.3425 34.3884 33.341 34.4268C33.3395 34.4651 33.3525 34.5026 33.3775 34.5318L33.6563 34.8105H33.2617C33.2213 34.8105 33.1826 34.8266 33.154 34.8552C33.1254 34.8837 33.1094 34.9225 33.1094 34.9629C33.1094 35.0033 33.1254 35.042 33.154 35.0706C33.1826 35.0992 33.2213 35.1152 33.2617 35.1152H33.6563L33.3775 35.394C33.3525 35.4232 33.3395 35.4607 33.341 35.499C33.3425 35.5373 33.3584 35.5737 33.3855 35.6008C33.4126 35.628 33.449 35.6439 33.4873 35.6453C33.5257 35.6468 33.5632 35.6338 33.5923 35.6088L33.8711 35.33V35.7246C33.8711 35.765 33.8871 35.8038 33.9157 35.8323C33.9443 35.8609 33.983 35.877 34.0234 35.877C34.0638 35.877 34.1026 35.8609 34.1312 35.8323C34.1597 35.8038 34.1758 35.765 34.1758 35.7246V35.33L34.4546 35.6088C34.4837 35.6338 34.5212 35.6468 34.5595 35.6453C34.5979 35.6439 34.6343 35.628 34.6614 35.6008C34.6885 35.5737 34.7044 35.5373 34.7059 35.499C34.7074 35.4607 34.6943 35.4232 34.6694 35.394L34.3906 35.1152H34.7852C34.8256 35.1152 34.8643 35.0992 34.8929 35.0706C34.9214 35.042 34.9375 35.0033 34.9375 34.9629C34.9375 34.9225 34.9214 34.8837 34.8929 34.8552C34.8643 34.8266 34.8256 34.8105 34.7852 34.8105Z" fill="#40BDFF"/>
</svg>
